<svg width="32" height="32" viewBox="0 0 32 32" fill="none" xmlns="http://www.w3.org/2000/svg">
<g clip-path="url(#clip0_24_80)">
<rect width="32" height="32" rx="6" fill="url(#paint0_linear_24_80)"/>
<path d="M24.293 25H20.4521V13.1436C20.4521 12.3271 20.3656 11.7272 20.1924 11.3438C20.0316 10.9479 19.7409 10.75 19.3203 10.75C18.5534 10.75 18.0648 11.1829 17.8545 12.0488C17.6566 12.9023 17.5576 14.1517 17.5576 15.7969V25H13.7168V13.1436C13.7168 12.3271 13.6302 11.7272 13.457 11.3438C13.2839 10.9479 12.9808 10.75 12.5479 10.75C11.7933 10.75 11.3171 11.1829 11.1191 12.0488C10.9336 12.9023 10.8408 14.1517 10.8408 15.7969V25H7V7.70703H10.8779V10.2119C11.1501 9.25944 11.5521 8.53581 12.084 8.04102C12.6159 7.54622 13.3271 7.29883 14.2178 7.29883C14.96 7.29883 15.5785 7.52767 16.0732 7.98535C16.5804 8.43066 16.9268 9.04915 17.1123 9.84082C17.5452 8.97493 17.9906 8.33789 18.4482 7.92969C18.9183 7.50911 19.6357 7.29883 20.6006 7.29883C21.7881 7.29883 22.6973 7.73796 23.3281 8.61621C23.9714 9.4821 24.293 10.7995 24.293 12.5684V25Z" fill="#0A0A0A"/>
</g>
<defs>
<linearGradient id="paint0_linear_24_80" x1="-5" y1="-3.5" x2="38" y2="44.5" gradientUnits="userSpaceOnUse">
<stop stop-color="#0A0A0A"/>
<stop offset="0.427285" stop-color="#00E0A8"/>
<stop offset="0.641851" stop-color="#04926E"/>
<stop offset="0.953633" stop-color="#0A0A0A"/>
</linearGradient>
<clipPath id="clip0_24_80">
<rect width="32" height="32" rx="6" fill="white"/>
</clipPath>
</defs>
</svg>
