<?xml version="1.0" encoding="UTF-8"?><svg id="Layer_2" xmlns="http://www.w3.org/2000/svg" viewBox="0 0 236.04 236.04"><defs><style>.cls-1{fill:none;stroke-width:11px;}.cls-1,.cls-2,.cls-3{stroke:#04c5a1;stroke-miterlimit:10;}.cls-4{fill:#fff;}.cls-2{stroke-width:6px;}.cls-2,.cls-3{fill:#04c5a1;}.cls-3{stroke-width:8px;}</style></defs><g id="Layer_1-2"><rect class="cls-4" width="236.04" height="236.04" rx="30.02" ry="30.02"/><polygon class="cls-2" points="93.97 54.64 93.97 67.21 81.78 67.21 81.78 79.79 69.57 79.79 65.6 52.26 93.97 54.64"/><path class="cls-3" d="M187.76,104.28v88.38c0,3.37-2.53,6.1-5.66,6.1H57.58c-3.12,0-5.66-2.73-5.66-6.1v-88.38c0-3.37,2.53-6.1,5.66-6.1h0c3.12,0,5.66,2.73,5.66,6.1l5.53,83.66c0,3.37,2.53,6.1,5.66,6.1l96.35-7.85c3.12,0,5.66-2.73,5.66-6.1v-75.81c0-3.37,2.53-6.1,5.66-6.1h0c3.12,0,5.66,2.73,5.66,6.1Z"/><line class="cls-2" x1="38.86" y1="110.47" x2="123.57" y2="51.11"/><polygon class="cls-2" points="42.55 115.75 35.16 110.47 119.87 45.84 127.26 56.39 42.55 115.75"/><line class="cls-2" x1="200.88" y1="110.47" x2="116.17" y2="51.11"/><polygon class="cls-2" points="197.18 115.75 200.88 110.47 125.87 37.27 112.47 56.39 197.18 115.75"/><circle class="cls-1" cx="105.55" cy="122.67" r="12.2"/><circle class="cls-1" cx="134.13" cy="122.67" r="12.2"/><rect class="cls-2" x="113.25" y="151.2" width="13.18" height="13.18" rx=".12" ry=".12" transform="translate(146.68 -38.52) rotate(45)"/></g></svg>