<svg width="454" height="66" viewBox="0 0 454 66" fill="none" xmlns="http://www.w3.org/2000/svg">
<path d="M45.5078 63.7207H35.4004V32.5195C35.4004 30.3711 35.1725 28.7923 34.7168 27.7832C34.2936 26.7415 33.5286 26.2207 32.4219 26.2207C30.4036 26.2207 29.1178 27.36 28.5645 29.6387C28.0436 31.8848 27.7832 35.1725 27.7832 39.502V63.7207H17.6758V32.5195C17.6758 30.3711 17.4479 28.7923 16.9922 27.7832C16.5365 26.7415 15.7389 26.2207 14.5996 26.2207C12.6139 26.2207 11.3607 27.36 10.8398 29.6387C10.3516 31.8848 10.1074 35.1725 10.1074 39.502V63.7207H0V18.2129H10.2051V24.8047C10.9212 22.2982 11.9792 20.3939 13.3789 19.0918C14.7786 17.7897 16.6504 17.1387 18.9941 17.1387C20.9473 17.1387 22.5749 17.7409 23.877 18.9453C25.2116 20.1172 26.123 21.7448 26.6113 23.8281C27.7507 21.5495 28.9225 19.873 30.127 18.7988C31.3639 17.6921 33.252 17.1387 35.791 17.1387C38.916 17.1387 41.3086 18.2943 42.9688 20.6055C44.6615 22.8841 45.5078 26.3509 45.5078 31.0059V63.7207ZM96.2695 41.0156C96.2695 44.5638 95.6999 47.7865 94.5605 50.6836C93.4538 53.5807 91.8424 56.0872 89.7266 58.2031C87.6432 60.2865 85.1367 61.9141 82.207 63.0859C79.2773 64.2578 76.0059 64.8438 72.3926 64.8438C68.8444 64.8438 65.6055 64.2578 62.6758 63.0859C59.7461 61.9141 57.2233 60.2865 55.1074 58.2031C53.0241 56.0872 51.4128 53.5807 50.2734 50.6836C49.1667 47.7865 48.6133 44.5638 48.6133 41.0156C48.6133 37.5651 49.1667 34.375 50.2734 31.4453C51.4128 28.4831 53.0241 25.944 55.1074 23.8281C57.2233 21.6797 59.7461 20.0358 62.6758 18.8965C65.6055 17.7246 68.8444 17.1387 72.3926 17.1387C76.0059 17.1387 79.2773 17.7246 82.207 18.8965C85.1367 20.0358 87.6432 21.6797 89.7266 23.8281C91.8424 25.944 93.4538 28.4831 94.5605 31.4453C95.6999 34.375 96.2695 37.5651 96.2695 41.0156ZM86.2109 41.0156C86.2109 38.9648 85.8854 37.028 85.2344 35.2051C84.6159 33.3496 83.7044 31.7708 82.5 30.4688C81.2956 29.1667 79.8307 28.1413 78.1055 27.3926C76.4128 26.6113 74.5085 26.2207 72.3926 26.2207C70.2441 26.2207 68.3236 26.6113 66.6309 27.3926C64.9382 28.1413 63.5059 29.1667 62.334 30.4688C61.1621 31.7708 60.2507 33.3496 59.5996 35.2051C58.9811 37.028 58.6719 38.9648 58.6719 41.0156C58.6719 43.1641 58.9811 45.1172 59.5996 46.875C60.2507 48.6328 61.1621 50.179 62.334 51.5137C63.5059 52.8483 64.9382 53.89 66.6309 54.6387C68.3236 55.3548 70.2441 55.7129 72.3926 55.7129C74.5085 55.7129 76.4128 55.3548 78.1055 54.6387C79.8307 53.89 81.2956 52.8483 82.5 51.5137C83.7044 50.179 84.6159 48.6328 85.2344 46.875C85.8854 45.1172 86.2109 43.1641 86.2109 41.0156ZM142.295 63.7207H132.188V35.6445C132.188 32.0964 131.52 29.6387 130.186 28.2715C128.851 26.9043 126.914 26.2207 124.375 26.2207C120.632 26.2207 117.572 27.7344 115.195 30.7617C112.852 33.7891 111.68 37.972 111.68 43.3105V63.7207H101.572V18.2129H111.68V29.6387C112.689 25.6999 114.561 22.64 117.295 20.459C120.029 18.2454 123.398 17.1387 127.402 17.1387C132.057 17.1387 135.703 18.6523 138.34 21.6797C140.977 24.707 142.295 29.362 142.295 35.6445V63.7207ZM191.885 63.7207H181.777V59.5215C179.824 61.2467 177.855 62.5651 175.869 63.4766C173.883 64.388 171.621 64.8438 169.082 64.8438C166.152 64.8438 163.434 64.2578 160.928 63.0859C158.421 61.9141 156.257 60.2865 154.434 58.2031C152.643 56.0872 151.227 53.5645 150.186 50.6348C149.176 47.7051 148.672 44.4987 148.672 41.0156C148.672 37.5651 149.176 34.375 150.186 31.4453C151.227 28.4831 152.643 25.9603 154.434 23.877C156.257 21.7611 158.421 20.1172 160.928 18.9453C163.434 17.7409 166.152 17.1387 169.082 17.1387C171.621 17.1387 173.883 17.5781 175.869 18.457C177.855 19.3034 179.824 20.5892 181.777 22.3145V9.13086H172.988V0H191.885V63.7207ZM181.777 30.3223C180.573 28.9876 179.01 27.9785 177.09 27.2949C175.202 26.5788 173.395 26.2207 171.67 26.2207C167.861 26.2207 164.753 27.5879 162.344 30.3223C159.967 33.0566 158.779 36.6211 158.779 41.0156C158.779 45.4102 159.967 48.9583 162.344 51.6602C164.753 54.362 167.861 55.7129 171.67 55.7129C173.395 55.7129 175.202 55.3711 177.09 54.6875C179.01 53.9714 180.573 52.946 181.777 51.6113V30.3223ZM242.047 25.5176H223.438V58.2363H233.281V63.7207H207.078V58.2363H216.969V25.5176H207.078V20.0332H216.969C216.969 14.0332 218.516 9.45508 221.609 6.29883C224.734 3.11133 229.438 1.51758 235.719 1.51758C237.188 1.51758 238.422 1.56445 239.422 1.6582C240.453 1.75195 241.328 1.86133 242.047 1.98633V7.4707C241.141 7.3457 240.188 7.23633 239.188 7.14258C238.219 7.04883 237.062 7.00195 235.719 7.00195C231.625 7.00195 228.547 8.04883 226.484 10.1426C224.453 12.2051 223.438 15.502 223.438 20.0332H242.047V25.5176ZM287.262 26.1738C284.95 25.0176 282.2 24.4395 279.012 24.4395C276.387 24.4395 274.044 25.002 271.981 26.127C269.919 27.252 268.169 28.7363 266.731 30.5801C265.294 32.3926 264.184 34.4863 263.403 36.8613C262.653 39.2051 262.278 41.627 262.278 44.127V58.2363H272.169V63.7207H245.966V58.2363H255.856V25.5176H245.966V20.0332H262.278V31.002C265.216 23.002 270.794 19.002 279.012 19.002C281.231 19.002 283.153 19.1426 284.778 19.4238C286.434 19.7051 287.966 20.2051 289.372 20.9238L287.262 26.1738ZM293.478 51.9082C293.478 49.1582 294.166 46.8613 295.541 45.0176C296.916 43.1426 298.712 41.6738 300.931 40.6113C303.181 39.5176 305.744 38.7363 308.619 38.2676C311.525 37.7676 314.478 37.5176 317.478 37.5176C318.634 37.5176 319.666 37.5332 320.572 37.5645C321.509 37.5957 322.384 37.6426 323.197 37.7051C324.041 37.7676 324.884 37.8457 325.728 37.9395C326.572 38.0332 327.494 38.1426 328.494 38.2676V35.127C328.494 33.002 328.025 31.252 327.087 29.877C326.181 28.502 325.056 27.4238 323.712 26.6426C322.369 25.8301 320.962 25.2676 319.494 24.9551C318.025 24.6113 316.775 24.4395 315.744 24.4395C312.494 24.4395 309.494 24.877 306.744 25.752C303.994 26.627 301.431 27.7988 299.056 29.2676L296.15 24.4395C298.775 22.8457 301.712 21.5488 304.962 20.5488C308.244 19.5176 311.837 19.002 315.744 19.002C318.119 19.002 320.447 19.3145 322.728 19.9395C325.041 20.5332 327.103 21.4707 328.916 22.752C330.759 24.002 332.228 25.6582 333.322 27.7207C334.416 29.7832 334.962 32.252 334.962 35.127V63.7207H328.494V56.4082C327.369 57.8145 326.087 59.0488 324.65 60.1113C323.244 61.1738 321.759 62.0488 320.197 62.7363C318.634 63.3926 317.072 63.8926 315.509 64.2363C313.947 64.6113 312.462 64.7988 311.056 64.7988C305.275 64.7988 300.9 63.6895 297.931 61.4707C294.962 59.252 293.478 56.0645 293.478 51.9082ZM311.056 59.3145C313.744 59.3145 316.15 58.9238 318.275 58.1426C320.431 57.3301 322.259 56.3301 323.759 55.1426C325.259 53.9551 326.416 52.6895 327.228 51.3457C328.072 50.002 328.494 48.7832 328.494 47.6895V43.5645C326.4 43.252 324.384 43.0801 322.447 43.0488C320.541 43.0176 318.884 43.002 317.478 43.002C315.166 43.002 312.931 43.1582 310.775 43.4707C308.65 43.7832 306.791 44.2988 305.197 45.0176C303.603 45.7051 302.322 46.6113 301.353 47.7363C300.384 48.8613 299.9 50.252 299.9 51.9082C299.9 53.752 300.791 55.4551 302.572 57.0176C304.384 58.5488 307.212 59.3145 311.056 59.3145ZM384.866 63.7207H378.444V32.3145C378.444 29.8145 378.006 27.877 377.131 26.502C376.256 25.127 374.991 24.4395 373.334 24.4395C370.897 24.4395 369.1 25.7207 367.944 28.2832C366.819 30.8457 366.256 34.4395 366.256 39.0645V63.7207H359.788V32.3145C359.788 29.8145 359.334 27.877 358.428 26.502C357.553 25.127 356.288 24.4395 354.631 24.4395C353.1 24.4395 351.881 24.8926 350.975 25.7988C350.069 26.7051 349.35 27.8613 348.819 29.2676C348.319 30.6738 347.991 32.2363 347.834 33.9551C347.678 35.6738 347.6 37.377 347.6 39.0645V63.7207H341.178V20.0332H347.6V26.3613C348.944 21.4551 351.866 19.002 356.366 19.002C360.647 19.002 363.553 21.1426 365.084 25.4238C367.209 21.1426 370.209 19.002 374.084 19.002C377.803 19.002 380.522 20.1113 382.241 22.3301C383.991 24.5176 384.866 27.8457 384.866 32.3145V63.7207ZM395.206 44.127C395.675 48.752 397.362 52.4395 400.269 55.1895C403.175 57.9395 406.956 59.3145 411.612 59.3145C414.894 59.3145 417.816 58.6426 420.378 57.2988C422.941 55.9551 424.862 54.2832 426.144 52.2832L430.644 55.377C428.456 58.4395 425.847 60.7832 422.816 62.4082C419.784 64.002 416.05 64.7988 411.612 64.7988C408.237 64.7988 405.144 64.2363 402.331 63.1113C399.519 61.9863 397.081 60.4238 395.019 58.4238C392.987 56.3926 391.409 53.9863 390.284 51.2051C389.159 48.4238 388.597 45.3301 388.597 41.9238C388.597 38.6113 389.097 35.5645 390.097 32.7832C391.128 29.9707 392.597 27.5488 394.503 25.5176C396.441 23.4551 398.784 21.8613 401.534 20.7363C404.284 19.5801 407.362 19.002 410.769 19.002C414.487 19.002 417.737 19.627 420.519 20.877C423.3 22.127 425.612 23.8613 427.456 26.0801C429.331 28.2676 430.706 30.8926 431.581 33.9551C432.487 37.0176 432.941 40.4082 432.941 44.127H395.206ZM426.144 38.6426C425.425 33.8613 423.691 30.2988 420.941 27.9551C418.191 25.6113 414.8 24.4395 410.769 24.4395C408.706 24.4395 406.8 24.7832 405.05 25.4707C403.3 26.127 401.753 27.0801 400.409 28.3301C399.066 29.5801 397.941 31.0957 397.034 32.877C396.128 34.627 395.55 36.5488 395.3 38.6426H426.144Z" fill="black"/>
<path d="M446.391 65.054C444.346 65.054 442.635 64.3651 441.257 62.9874C439.88 61.6096 439.191 59.8985 439.191 57.854C439.191 55.8096 439.88 54.0985 441.257 52.7207C442.635 51.3429 444.346 50.654 446.391 50.654C448.48 50.654 450.191 51.3429 451.524 52.7207C452.902 54.0985 453.591 55.8096 453.591 57.854C453.591 59.8985 452.902 61.6096 451.524 62.9874C450.191 64.3651 448.48 65.054 446.391 65.054Z" fill="#FF383C"/>
</svg>
