<?xml version="1.0" encoding="UTF-8"?>
<svg id="Layer_2" data-name="Layer 2" xmlns="http://www.w3.org/2000/svg" viewBox="0 0 1209.57 284.33">
  <defs>
    <style>
      .cls-1 {
        fill: none;
        stroke-width: 13px;
      }

      .cls-1, .cls-2, .cls-3, .cls-4 {
        stroke: #04c5a1;
        stroke-miterlimit: 10;
      }

      .cls-2 {
        fill: #04c4a1;
      }

      .cls-2, .cls-3 {
        stroke-width: 6px;
      }

      .cls-5 {
        font-family: Poppins-Bold, Poppins;
        font-size: 158.74px;
        font-weight: 700;
      }

      .cls-3, .cls-4 {
        fill: #04c5a1;
      }

      .cls-4 {
        stroke-width: 8px;
      }
    </style>
  </defs>
  <g id="Layer_1-2" data-name="Layer 1">
    <text class="cls-5" transform="translate(226.81 188.13)"><tspan x="0" y="0">mondframe</tspan></text>
    <g>
      <polygon class="cls-3" points="86.66 27.74 86.66 43.57 71.3 43.57 71.3 59.41 55.93 59.41 50.93 24.74 86.66 27.74"/>
      <path class="cls-4" d="M197.19,88.98v111.28c0,4.24-3.19,7.68-7.12,7.68H33.29c-3.93,0-7.12-3.44-7.12-7.68v-111.28c0-4.24,3.19-7.68,7.12-7.68h0c3.93,0,7.12,3.44,7.12,7.68l6.96,105.33c0,4.24,3.19,7.68,7.12,7.68l121.31-9.88c3.93,0,7.12-3.44,7.12-7.68v-95.45c0-4.24,3.19-7.68,7.12-7.68h0c3.93,0,7.12,3.44,7.12,7.68Z"/>
      <g>
        <line class="cls-3" x1="9.71" y1="96.77" x2="116.36" y2="22.04"/>
        <polygon class="cls-3" points="14.36 103.42 5.05 96.77 111.71 15.39 121.02 28.68 14.36 103.42"/>
      </g>
      <g>
        <line class="cls-3" x1="213.71" y1="96.77" x2="107.05" y2="22.04"/>
        <polygon class="cls-3" points="209.05 103.42 213.71 96.77 119.26 4.61 102.4 28.68 209.05 103.42"/>
      </g>
      <g>
        <circle class="cls-1" cx="93.69" cy="112.14" r="15.36"/>
        <circle class="cls-1" cx="129.67" cy="112.14" r="15.36"/>
      </g>
      <rect class="cls-2" x="98.79" y="140.98" width="25.78" height="25.78" transform="translate(141.51 -33.9) rotate(45)"/>
    </g>
  </g>
</svg>