<?xml version="1.0" encoding="UTF-8"?><svg id="Layer_2" xmlns="http://www.w3.org/2000/svg" viewBox="0 0 1008.27 170.1"><defs><style>.cls-1{fill:none;stroke-width:11px;}.cls-1,.cls-2,.cls-3{stroke:#04c5a1;stroke-miterlimit:10;}.cls-4{fill:#0a0a0a;}.cls-2{stroke-width:6px;}.cls-2,.cls-3{fill:#04c5a1;}.cls-3{stroke-width:8px;}</style></defs><g id="Layer_1-2"><polygon class="cls-2" points="63.87 21.98 63.87 34.55 51.67 34.55 51.67 47.13 39.46 47.13 35.49 19.6 63.87 21.98"/><path class="cls-3" d="M157.65,71.62v88.38c0,3.37-2.53,6.1-5.66,6.1H27.48c-3.12,0-5.66-2.73-5.66-6.1v-88.38c0-3.37,2.53-6.1,5.66-6.1h0c3.12,0,5.66,2.73,5.66,6.1l5.53,83.66c0,3.37,2.53,6.1,5.66,6.1l96.35-7.85c3.12,0,5.66-2.73,5.66-6.1v-75.81c0-3.37,2.53-6.1,5.66-6.1h0c3.12,0,5.66,2.73,5.66,6.1Z"/><line class="cls-2" x1="8.75" y1="77.81" x2="93.46" y2="18.45"/><polygon class="cls-2" points="12.45 83.09 5.05 77.81 89.76 13.18 97.16 23.73 12.45 83.09"/><line class="cls-2" x1="170.77" y1="77.81" x2="86.06" y2="18.45"/><polygon class="cls-2" points="167.08 83.09 170.77 77.81 95.76 4.61 82.37 23.73 167.08 83.09"/><circle class="cls-1" cx="75.45" cy="90.01" r="12.2"/><circle class="cls-1" cx="104.03" cy="90.01" r="12.2"/><rect class="cls-2" x="83.14" y="118.54" width="13.18" height="13.18" rx=".12" ry=".12" transform="translate(114.77 -26.8) rotate(45)"/><path class="cls-4" d="M194.41,163v-74.45h21.91l.79,8.25c2.33-2.86,5.29-5.24,8.89-7.14,3.6-1.9,7.83-2.86,12.7-2.86,5.93,0,10.64,1.11,14.13,3.33,3.49,2.22,6.08,4.55,7.78,6.98,3.07-3.28,6.8-5.82,11.19-7.62,4.39-1.8,8.97-2.7,13.73-2.7,9.42,0,16.67,2.73,21.75,8.18,5.08,5.45,7.62,12.78,7.62,21.98v46.04h-22.86v-42.38c0-4.34-.98-7.75-2.94-10.24-1.96-2.49-4.9-3.73-8.81-3.73-4.34,0-7.86,1.54-10.56,4.6-2.7,3.07-4.05,6.98-4.05,11.75v40h-22.07v-42.38c0-4.34-.98-7.75-2.94-10.24-1.96-2.49-4.9-3.73-8.81-3.73-4.23,0-7.73,1.54-10.48,4.6-2.75,3.07-4.13,6.98-4.13,11.75v40h-22.86Z"/><path class="cls-4" d="M328.07,125.7c0-7.3,1.69-13.97,5.08-20,3.39-6.03,8.07-10.82,14.05-14.37,5.98-3.54,12.94-5.32,20.87-5.32s14.89,1.77,20.87,5.32c5.98,3.55,10.64,8.33,13.97,14.37,3.33,6.03,5,12.7,5,20s-1.67,13.97-5,20c-3.33,6.03-7.99,10.85-13.97,14.45-5.98,3.6-12.94,5.4-20.87,5.4s-14.9-1.8-20.87-5.4c-5.98-3.6-10.66-8.41-14.05-14.45-3.39-6.03-5.08-12.7-5.08-20ZM368.08,145.7c3.91,0,7.17-.95,9.76-2.86,2.59-1.91,4.58-4.39,5.95-7.46,1.37-3.07,2.06-6.29,2.06-9.68s-.69-6.59-2.06-9.6c-1.38-3.02-3.36-5.48-5.95-7.38-2.59-1.9-5.85-2.86-9.76-2.86s-7.06.95-9.76,2.86c-2.7,1.91-4.74,4.37-6.11,7.38-1.38,3.02-2.06,6.22-2.06,9.6s.69,6.62,2.06,9.68c1.37,3.07,3.41,5.56,6.11,7.46,2.7,1.91,5.95,2.86,9.76,2.86Z"/><path class="cls-4" d="M421.57,163v-74.45h21.91l.63,8.1c2.43-2.96,5.66-5.34,9.68-7.14,4.02-1.8,8.15-2.7,12.38-2.7,8.47,0,15.24,2.54,20.32,7.62,5.08,5.08,7.62,12.59,7.62,22.54v46.04h-22.86v-42.86c0-4.13-1.03-7.41-3.1-9.84-2.06-2.43-4.95-3.65-8.65-3.65-4.98,0-8.76,1.64-11.35,4.92-2.59,3.28-3.89,7.09-3.89,11.43v40h-22.7Z"/><path class="cls-4" d="M562.21,163l-.95-7.46c-2.33,2.65-5.32,4.92-8.97,6.83-3.65,1.9-7.81,2.86-12.46,2.86-6.03,0-11.51-1.56-16.43-4.68-4.92-3.12-8.84-7.56-11.75-13.33-2.91-5.77-4.37-12.57-4.37-20.4,0-6.67,1.16-12.51,3.49-17.54,2.33-5.02,5.42-9.18,9.29-12.46,3.86-3.28,8.07-5.74,12.62-7.38,4.55-1.64,9.05-2.46,13.49-2.46,3.6,0,6.43.24,8.49.71,2.06.48,4.1,1.09,6.11,1.83v-32.38h22.7v105.88h-21.27ZM560.79,129.35v-20.32c-2.96-1.8-6.98-2.7-12.06-2.7-5.82,0-10.35,1.96-13.57,5.87-3.23,3.92-4.84,8.94-4.84,15.08,0,5.4,1.35,9.82,4.05,13.25,2.7,3.44,6.64,5.16,11.83,5.16s8.91-1.67,11.19-5c2.27-3.33,3.41-7.12,3.41-11.35Z"/><path class="cls-4" d="M606.18,163v-56.51h-12.06v-17.94h12.06v-3.81c0-7.09,1.48-12.86,4.44-17.3,2.96-4.44,6.77-7.75,11.43-9.92,4.66-2.17,9.52-3.25,14.6-3.25,4.02,0,8.1.58,12.22,1.75,4.13,1.17,7.88,3.17,11.27,6.03-1.59,2.44-3.2,4.84-4.84,7.22-1.64,2.38-3.25,4.79-4.84,7.22-1.59-1.16-3.33-2.06-5.24-2.7-1.9-.63-3.86-.95-5.87-.95-3.17,0-5.71,1.01-7.62,3.02-1.9,2.01-2.86,4.87-2.86,8.57v4.13h17.62v17.94h-17.62v56.51h-22.7Z"/><path class="cls-4" d="M656.82,163v-74.45h21.91l.79,9.37c1.91-2.54,4.52-4.97,7.86-7.3,3.33-2.33,7.64-3.49,12.94-3.49,2.01,0,3.73.11,5.16.32,1.43.21,2.83.58,4.21,1.11l-3.65,20.16c-2.33-.74-5.08-1.11-8.25-1.11-5.4,0-9.76,1.61-13.1,4.84-3.33,3.23-5,7.81-5,13.73v36.83h-22.86Z"/><path class="cls-4" d="M761.43,163l-.63-6.98c-5.29,6.14-12.81,9.21-22.54,9.21-3.49,0-7.17-.66-11.03-1.98-3.87-1.32-7.17-3.68-9.92-7.06-2.75-3.39-4.13-8.04-4.13-13.97s1.51-10.74,4.52-14.76c3.02-4.02,7.12-7.06,12.3-9.13,5.18-2.06,11.01-3.1,17.46-3.1,2.64,0,5.32.05,8.02.16,2.7.11,4.47.26,5.32.48v-1.59c0-3.81-1.46-6.53-4.37-8.18-2.91-1.64-6.22-2.46-9.92-2.46-4.98,0-9.16.63-12.54,1.9-3.39,1.27-6.25,2.7-8.57,4.29l-9.37-13.97c3.07-2.43,7.25-4.68,12.54-6.75,5.29-2.06,12.33-3.1,21.11-3.1,11.32,0,19.68,3.04,25.08,9.13,5.4,6.09,8.1,14.26,8.1,24.52v43.34h-21.43ZM760.8,136.18v-6.03c-.53-.1-1.54-.24-3.02-.4-1.48-.16-3.17-.24-5.08-.24-6.35,0-10.85.9-13.49,2.7-2.65,1.8-3.97,4.34-3.97,7.62,0,6.14,3.7,9.21,11.11,9.21,3.6,0,6.91-1.11,9.92-3.33,3.02-2.22,4.52-5.4,4.52-9.52Z"/><path class="cls-4" d="M799.37,163v-74.45h21.91l.79,8.25c2.33-2.86,5.29-5.24,8.89-7.14,3.6-1.9,7.83-2.86,12.7-2.86,5.93,0,10.64,1.11,14.13,3.33s6.08,4.55,7.78,6.98c3.07-3.28,6.8-5.82,11.19-7.62,4.39-1.8,8.97-2.7,13.73-2.7,9.42,0,16.67,2.73,21.75,8.18,5.08,5.45,7.62,12.78,7.62,21.98v46.04h-22.86v-42.38c0-4.34-.98-7.75-2.94-10.24-1.96-2.49-4.9-3.73-8.81-3.73-4.34,0-7.86,1.54-10.56,4.6-2.7,3.07-4.05,6.98-4.05,11.75v40h-22.07v-42.38c0-4.34-.98-7.75-2.94-10.24-1.96-2.49-4.9-3.73-8.81-3.73-4.23,0-7.73,1.54-10.48,4.6-2.75,3.07-4.13,6.98-4.13,11.75v40h-22.86Z"/><path class="cls-4" d="M997.32,140.46l9.37,14.45c-1.06.74-2.94,1.96-5.64,3.65-2.7,1.69-6.27,3.28-10.71,4.76-4.45,1.48-9.9,2.22-16.35,2.22-8.47,0-15.77-1.69-21.91-5.08-6.14-3.39-10.85-8.1-14.13-14.13-3.28-6.03-4.92-12.96-4.92-20.79,0-6.98,1.51-13.49,4.52-19.53,3.02-6.03,7.41-10.87,13.18-14.52,5.77-3.65,12.67-5.48,20.72-5.48s14.79,1.83,20.24,5.48c5.45,3.65,9.58,8.68,12.38,15.08,2.8,6.4,4.21,13.79,4.21,22.14v3.81h-53.02c.1,3.92,1.9,7.41,5.4,10.48,3.49,3.07,8.2,4.6,14.13,4.6s10.74-.87,14.45-2.62c3.7-1.75,6.4-3.25,8.1-4.52ZM955.25,117.92h31.43c0-2.12-.56-4.26-1.67-6.43-1.11-2.17-2.8-3.99-5.08-5.48-2.28-1.48-5.16-2.22-8.65-2.22s-6.43.74-8.81,2.22c-2.38,1.48-4.18,3.31-5.4,5.48-1.22,2.17-1.83,4.31-1.83,6.43Z"/></g></svg>