<svg width="386" height="64" viewBox="0 0 386 64" fill="none" xmlns="http://www.w3.org/2000/svg">
<path d="M43.6875 62.2031H33.9844V32.25C33.9844 30.1875 33.7656 28.6719 33.3281 27.7031C32.9219 26.7031 32.1875 26.2031 31.125 26.2031C29.1875 26.2031 27.9531 27.2969 27.4219 29.4844C26.9219 31.6406 26.6719 34.7969 26.6719 38.9531V62.2031H16.9688V32.25C16.9688 30.1875 16.75 28.6719 16.3125 27.7031C15.875 26.7031 15.1094 26.2031 14.0156 26.2031C12.1094 26.2031 10.9062 27.2969 10.4062 29.4844C9.9375 31.6406 9.70312 34.7969 9.70312 38.9531V62.2031H0V18.5156H9.79688V24.8438C10.4844 22.4375 11.5 20.6094 12.8438 19.3594C14.1875 18.1094 15.9844 17.4844 18.2344 17.4844C20.1094 17.4844 21.6719 18.0625 22.9219 19.2188C24.2031 20.3438 25.0781 21.9062 25.5469 23.9062C26.6406 21.7188 27.7656 20.1094 28.9219 19.0781C30.1094 18.0156 31.9219 17.4844 34.3594 17.4844C37.3594 17.4844 39.6562 18.5938 41.25 20.8125C42.875 23 43.6875 26.3281 43.6875 30.7969V62.2031ZM85.6987 40.4062C85.6987 43.8125 85.1519 46.9062 84.0581 49.6875C82.9956 52.4688 81.4487 54.875 79.4175 56.9062C77.4175 58.9062 75.0112 60.4688 72.1987 61.5938C69.3862 62.7188 66.2456 63.2812 62.7769 63.2812C59.3706 63.2812 56.2612 62.7188 53.4487 61.5938C50.6362 60.4688 48.2144 58.9062 46.1831 56.9062C44.1831 54.875 42.6362 52.4688 41.5425 49.6875C40.48 46.9062 39.9487 43.8125 39.9487 40.4062C39.9487 37.0938 40.48 34.0312 41.5425 31.2188C42.6362 28.375 44.1831 25.9375 46.1831 23.9062C48.2144 21.8438 50.6362 20.2656 53.4487 19.1719C56.2612 18.0469 59.3706 17.4844 62.7769 17.4844C66.2456 17.4844 69.3862 18.0469 72.1987 19.1719C75.0112 20.2656 77.4175 21.8438 79.4175 23.9062C81.4487 25.9375 82.9956 28.375 84.0581 31.2188C85.1519 34.0312 85.6987 37.0938 85.6987 40.4062ZM76.0425 40.4062C76.0425 38.4375 75.73 36.5781 75.105 34.8281C74.5112 33.0469 73.6362 31.5312 72.48 30.2812C71.3237 29.0312 69.9175 28.0469 68.2612 27.3281C66.6362 26.5781 64.8081 26.2031 62.7769 26.2031C60.7144 26.2031 58.8706 26.5781 57.2456 27.3281C55.6206 28.0469 54.2456 29.0312 53.1206 30.2812C51.9956 31.5312 51.1206 33.0469 50.4956 34.8281C49.9019 36.5781 49.605 38.4375 49.605 40.4062C49.605 42.4688 49.9019 44.3438 50.4956 46.0312C51.1206 47.7188 51.9956 49.2031 53.1206 50.4844C54.2456 51.7656 55.6206 52.7656 57.2456 53.4844C58.8706 54.1719 60.7144 54.5156 62.7769 54.5156C64.8081 54.5156 66.6362 54.1719 68.2612 53.4844C69.9175 52.7656 71.3237 51.7656 72.48 50.4844C73.6362 49.2031 74.5112 47.7188 75.105 46.0312C75.73 44.3438 76.0425 42.4688 76.0425 40.4062ZM123.163 62.2031H113.46V35.25C113.46 31.8438 112.819 29.4844 111.538 28.1719C110.257 26.8594 108.397 26.2031 105.96 26.2031C102.366 26.2031 99.4287 27.6562 97.1475 30.5625C94.8975 33.4688 93.7725 37.4844 93.7725 42.6094V62.2031H84.0694V18.5156H93.7725V29.4844C94.7412 25.7031 96.5381 22.7656 99.1631 20.6719C101.788 18.5469 105.022 17.4844 108.866 17.4844C113.335 17.4844 116.835 18.9375 119.366 21.8438C121.897 24.75 123.163 29.2188 123.163 35.25V62.2031ZM164.049 62.2031H154.346V58.1719C152.471 59.8281 150.581 61.0938 148.674 61.9688C146.768 62.8438 144.596 63.2812 142.159 63.2812C139.346 63.2812 136.737 62.7188 134.331 61.5938C131.924 60.4688 129.846 58.9062 128.096 56.9062C126.378 54.875 125.018 52.4531 124.018 49.6406C123.049 46.8281 122.565 43.75 122.565 40.4062C122.565 37.0938 123.049 34.0312 124.018 31.2188C125.018 28.375 126.378 25.9531 128.096 23.9531C129.846 21.9219 131.924 20.3438 134.331 19.2188C136.737 18.0625 139.346 17.4844 142.159 17.4844C144.596 17.4844 146.768 17.9062 148.674 18.75C150.581 19.5625 152.471 20.7969 154.346 22.4531V9.79688H145.909V1.03125H164.049V62.2031ZM154.346 30.1406C153.19 28.8594 151.69 27.8906 149.846 27.2344C148.034 26.5469 146.299 26.2031 144.643 26.2031C140.987 26.2031 138.003 27.5156 135.69 30.1406C133.409 32.7656 132.268 36.1875 132.268 40.4062C132.268 44.625 133.409 48.0312 135.69 50.625C138.003 53.2188 140.987 54.5156 144.643 54.5156C146.299 54.5156 148.034 54.1875 149.846 53.5312C151.69 52.8438 153.19 51.8594 154.346 50.5781V30.1406ZM207.232 24H188.623V56.7188H198.467V62.2031H172.264V56.7188H182.154V24H172.264V18.5156H182.154C182.154 12.5156 183.701 7.9375 186.795 4.78125C189.92 1.59375 194.623 0 200.904 0C202.373 0 203.607 0.046875 204.607 0.140625C205.639 0.234375 206.514 0.34375 207.232 0.46875V5.95312C206.326 5.82812 205.373 5.71875 204.373 5.625C203.404 5.53125 202.248 5.48438 200.904 5.48438C196.811 5.48438 193.732 6.53125 191.67 8.625C189.639 10.6875 188.623 13.9844 188.623 18.5156H207.232V24ZM245.728 24.6562C243.416 23.5 240.666 22.9219 237.478 22.9219C234.853 22.9219 232.509 23.4844 230.447 24.6094C228.384 25.7344 226.634 27.2188 225.197 29.0625C223.759 30.875 222.65 32.9688 221.869 35.3438C221.119 37.6875 220.744 40.1094 220.744 42.6094V56.7188H230.634V62.2031H204.431V56.7188H214.322V24H204.431V18.5156H220.744V29.4844C223.681 21.4844 229.259 17.4844 237.478 17.4844C239.697 17.4844 241.619 17.625 243.244 17.9062C244.9 18.1875 246.431 18.6875 247.837 19.4062L245.728 24.6562ZM245.224 50.3906C245.224 47.6406 245.911 45.3438 247.286 43.5C248.661 41.625 250.458 40.1562 252.677 39.0938C254.927 38 257.489 37.2188 260.364 36.75C263.271 36.25 266.224 36 269.224 36C270.38 36 271.411 36.0156 272.318 36.0469C273.255 36.0781 274.13 36.125 274.943 36.1875C275.786 36.25 276.63 36.3281 277.474 36.4219C278.318 36.5156 279.239 36.625 280.239 36.75V33.6094C280.239 31.4844 279.771 29.7344 278.833 28.3594C277.927 26.9844 276.802 25.9062 275.458 25.125C274.114 24.3125 272.708 23.75 271.239 23.4375C269.771 23.0938 268.521 22.9219 267.489 22.9219C264.239 22.9219 261.239 23.3594 258.489 24.2344C255.739 25.1094 253.177 26.2812 250.802 27.75L247.896 22.9219C250.521 21.3281 253.458 20.0312 256.708 19.0312C259.989 18 263.583 17.4844 267.489 17.4844C269.864 17.4844 272.193 17.7969 274.474 18.4219C276.786 19.0156 278.849 19.9531 280.661 21.2344C282.505 22.4844 283.974 24.1406 285.068 26.2031C286.161 28.2656 286.708 30.7344 286.708 33.6094V62.2031H280.239V54.8906C279.114 56.2969 277.833 57.5312 276.396 58.5938C274.989 59.6562 273.505 60.5312 271.943 61.2188C270.38 61.875 268.818 62.375 267.255 62.7188C265.693 63.0938 264.208 63.2812 262.802 63.2812C257.021 63.2812 252.646 62.1719 249.677 59.9531C246.708 57.7344 245.224 54.5469 245.224 50.3906ZM262.802 57.7969C265.489 57.7969 267.896 57.4062 270.021 56.625C272.177 55.8125 274.005 54.8125 275.505 53.625C277.005 52.4375 278.161 51.1719 278.974 49.8281C279.818 48.4844 280.239 47.2656 280.239 46.1719V42.0469C278.146 41.7344 276.13 41.5625 274.193 41.5312C272.286 41.5 270.63 41.4844 269.224 41.4844C266.911 41.4844 264.677 41.6406 262.521 41.9531C260.396 42.2656 258.536 42.7812 256.943 43.5C255.349 44.1875 254.068 45.0938 253.099 46.2188C252.13 47.3438 251.646 48.7344 251.646 50.3906C251.646 52.2344 252.536 53.9375 254.318 55.5C256.13 57.0312 258.958 57.7969 262.802 57.7969ZM329.891 62.2031H323.469V30.7969C323.469 28.2969 323.032 26.3594 322.157 24.9844C321.282 23.6094 320.016 22.9219 318.36 22.9219C315.922 22.9219 314.126 24.2031 312.969 26.7656C311.844 29.3281 311.282 32.9219 311.282 37.5469V62.2031H304.813V30.7969C304.813 28.2969 304.36 26.3594 303.454 24.9844C302.579 23.6094 301.313 22.9219 299.657 22.9219C298.126 22.9219 296.907 23.375 296.001 24.2812C295.094 25.1875 294.376 26.3438 293.844 27.75C293.344 29.1562 293.016 30.7188 292.86 32.4375C292.704 34.1562 292.626 35.8594 292.626 37.5469V62.2031H286.204V18.5156H292.626V24.8438C293.969 19.9375 296.891 17.4844 301.391 17.4844C305.672 17.4844 308.579 19.625 310.11 23.9062C312.235 19.625 315.235 17.4844 319.11 17.4844C322.829 17.4844 325.547 18.5938 327.266 20.8125C329.016 23 329.891 26.3281 329.891 30.7969V62.2031ZM333.512 42.6094C333.981 47.2344 335.668 50.9219 338.574 53.6719C341.481 56.4219 345.262 57.7969 349.918 57.7969C353.199 57.7969 356.121 57.125 358.684 55.7812C361.246 54.4375 363.168 52.7656 364.449 50.7656L368.949 53.8594C366.762 56.9219 364.152 59.2656 361.121 60.8906C358.09 62.4844 354.356 63.2812 349.918 63.2812C346.543 63.2812 343.449 62.7188 340.637 61.5938C337.824 60.4688 335.387 58.9062 333.324 56.9062C331.293 54.875 329.715 52.4688 328.59 49.6875C327.465 46.9062 326.902 43.8125 326.902 40.4062C326.902 37.0938 327.402 34.0469 328.402 31.2656C329.434 28.4531 330.902 26.0312 332.809 24C334.746 21.9375 337.09 20.3438 339.84 19.2188C342.59 18.0625 345.668 17.4844 349.074 17.4844C352.793 17.4844 356.043 18.1094 358.824 19.3594C361.606 20.6094 363.918 22.3438 365.762 24.5625C367.637 26.75 369.012 29.375 369.887 32.4375C370.793 35.5 371.246 38.8906 371.246 42.6094H333.512ZM364.449 37.125C363.731 32.3438 361.996 28.7812 359.246 26.4375C356.496 24.0938 353.106 22.9219 349.074 22.9219C347.012 22.9219 345.106 23.2656 343.356 23.9531C341.606 24.6094 340.059 25.5625 338.715 26.8125C337.371 28.0625 336.246 29.5781 335.34 31.3594C334.434 33.1094 333.856 35.0312 333.606 37.125H364.449Z" fill="black"/>
<path d="M377.976 63.5365C375.932 63.5365 374.221 62.8476 372.843 61.4698C371.465 60.092 370.776 58.3809 370.776 56.3365C370.776 54.292 371.465 52.5809 372.843 51.2031C374.221 49.8253 375.932 49.1365 377.976 49.1365C380.065 49.1365 381.776 49.8253 383.11 51.2031C384.487 52.5809 385.176 54.292 385.176 56.3365C385.176 58.3809 384.487 60.092 383.11 61.4698C381.776 62.8476 380.065 63.5365 377.976 63.5365Z" fill="#FF383C"/>
</svg>
