<svg width="452" height="66" viewBox="0 0 452 66" fill="none" xmlns="http://www.w3.org/2000/svg">
<path d="M40.7227 63.7207H30.6152V20.6055L24.2188 43.5059H16.4062L10.1074 20.6055V63.7207H0V0H12.0117L20.3125 28.8086L28.6133 0H40.7227V63.7207ZM93.877 41.0156C93.877 44.5638 93.3073 47.7865 92.168 50.6836C91.0612 53.5807 89.4499 56.0872 87.334 58.2031C85.2507 60.2865 82.7441 61.9141 79.8145 63.0859C76.8848 64.2578 73.6133 64.8438 70 64.8438C66.4518 64.8438 63.2129 64.2578 60.2832 63.0859C57.3535 61.9141 54.8307 60.2865 52.7148 58.2031C50.6315 56.0872 49.0202 53.5807 47.8809 50.6836C46.7741 47.7865 46.2207 44.5638 46.2207 41.0156C46.2207 37.5651 46.7741 34.375 47.8809 31.4453C49.0202 28.4831 50.6315 25.944 52.7148 23.8281C54.8307 21.6797 57.3535 20.0358 60.2832 18.8965C63.2129 17.7246 66.4518 17.1387 70 17.1387C73.6133 17.1387 76.8848 17.7246 79.8145 18.8965C82.7441 20.0358 85.2507 21.6797 87.334 23.8281C89.4499 25.944 91.0612 28.4831 92.168 31.4453C93.3073 34.375 93.877 37.5651 93.877 41.0156ZM83.8184 41.0156C83.8184 38.9648 83.4928 37.028 82.8418 35.2051C82.2233 33.3496 81.3118 31.7708 80.1074 30.4688C78.903 29.1667 77.4382 28.1413 75.7129 27.3926C74.0202 26.6113 72.1159 26.2207 70 26.2207C67.8516 26.2207 65.931 26.6113 64.2383 27.3926C62.5456 28.1413 61.1133 29.1667 59.9414 30.4688C58.7695 31.7708 57.8581 33.3496 57.207 35.2051C56.5885 37.028 56.2793 38.9648 56.2793 41.0156C56.2793 43.1641 56.5885 45.1172 57.207 46.875C57.8581 48.6328 58.7695 50.179 59.9414 51.5137C61.1133 52.8483 62.5456 53.89 64.2383 54.6387C65.931 55.3548 67.8516 55.7129 70 55.7129C72.1159 55.7129 74.0202 55.3548 75.7129 54.6387C77.4382 53.89 78.903 52.8483 80.1074 51.5137C81.3118 50.179 82.2233 48.6328 82.8418 46.875C83.4928 45.1172 83.8184 43.1641 83.8184 41.0156ZM139.902 63.7207H129.795V35.6445C129.795 32.0964 129.128 29.6387 127.793 28.2715C126.458 26.9043 124.521 26.2207 121.982 26.2207C118.239 26.2207 115.179 27.7344 112.803 30.7617C110.459 33.7891 109.287 37.972 109.287 43.3105V63.7207H99.1797V18.2129H109.287V29.6387C110.296 25.6999 112.168 22.64 114.902 20.459C117.637 18.2454 121.006 17.1387 125.01 17.1387C129.665 17.1387 133.311 18.6523 135.947 21.6797C138.584 24.707 139.902 29.362 139.902 35.6445V63.7207ZM189.492 63.7207H179.385V59.5215C177.432 61.2467 175.462 62.5651 173.477 63.4766C171.491 64.388 169.229 64.8438 166.689 64.8438C163.76 64.8438 161.042 64.2578 158.535 63.0859C156.029 61.9141 153.864 60.2865 152.041 58.2031C150.251 56.0872 148.835 53.5645 147.793 50.6348C146.784 47.7051 146.279 44.4987 146.279 41.0156C146.279 37.5651 146.784 34.375 147.793 31.4453C148.835 28.4831 150.251 25.9603 152.041 23.877C153.864 21.7611 156.029 20.1172 158.535 18.9453C161.042 17.7409 163.76 17.1387 166.689 17.1387C169.229 17.1387 171.491 17.5781 173.477 18.457C175.462 19.3034 177.432 20.5892 179.385 22.3145V9.13086H170.596V0H189.492V63.7207ZM179.385 30.3223C178.18 28.9876 176.618 27.9785 174.697 27.2949C172.809 26.5788 171.003 26.2207 169.277 26.2207C165.469 26.2207 162.36 27.5879 159.951 30.3223C157.575 33.0566 156.387 36.6211 156.387 41.0156C156.387 45.4102 157.575 48.9583 159.951 51.6602C162.36 54.362 165.469 55.7129 169.277 55.7129C171.003 55.7129 172.809 55.3711 174.697 54.6875C176.618 53.9714 178.18 52.946 179.385 51.6113V30.3223ZM239.654 25.5176H221.045V58.2363H230.889V63.7207H204.686V58.2363H214.576V25.5176H204.686V20.0332H214.576C214.576 14.0332 216.123 9.45508 219.217 6.29883C222.342 3.11133 227.045 1.51758 233.326 1.51758C234.795 1.51758 236.029 1.56445 237.029 1.6582C238.061 1.75195 238.936 1.86133 239.654 1.98633V7.4707C238.748 7.3457 237.795 7.23633 236.795 7.14258C235.826 7.04883 234.67 7.00195 233.326 7.00195C229.232 7.00195 226.154 8.04883 224.092 10.1426C222.061 12.2051 221.045 15.502 221.045 20.0332H239.654V25.5176ZM284.87 26.1738C282.557 25.0176 279.807 24.4395 276.62 24.4395C273.995 24.4395 271.651 25.002 269.589 26.127C267.526 27.252 265.776 28.7363 264.339 30.5801C262.901 32.3926 261.792 34.4863 261.011 36.8613C260.261 39.2051 259.886 41.627 259.886 44.127V58.2363H269.776V63.7207H243.573V58.2363H253.464V25.5176H243.573V20.0332H259.886V31.002C262.823 23.002 268.401 19.002 276.62 19.002C278.839 19.002 280.761 19.1426 282.386 19.4238C284.042 19.7051 285.573 20.2051 286.979 20.9238L284.87 26.1738ZM291.086 51.9082C291.086 49.1582 291.773 46.8613 293.148 45.0176C294.523 43.1426 296.32 41.6738 298.539 40.6113C300.789 39.5176 303.351 38.7363 306.226 38.2676C309.132 37.7676 312.086 37.5176 315.086 37.5176C316.242 37.5176 317.273 37.5332 318.179 37.5645C319.117 37.5957 319.992 37.6426 320.804 37.7051C321.648 37.7676 322.492 37.8457 323.336 37.9395C324.179 38.0332 325.101 38.1426 326.101 38.2676V35.127C326.101 33.002 325.632 31.252 324.695 29.877C323.789 28.502 322.664 27.4238 321.32 26.6426C319.976 25.8301 318.57 25.2676 317.101 24.9551C315.632 24.6113 314.382 24.4395 313.351 24.4395C310.101 24.4395 307.101 24.877 304.351 25.752C301.601 26.627 299.039 27.7988 296.664 29.2676L293.757 24.4395C296.382 22.8457 299.32 21.5488 302.57 20.5488C305.851 19.5176 309.445 19.002 313.351 19.002C315.726 19.002 318.054 19.3145 320.336 19.9395C322.648 20.5332 324.711 21.4707 326.523 22.752C328.367 24.002 329.836 25.6582 330.929 27.7207C332.023 29.7832 332.57 32.252 332.57 35.127V63.7207H326.101V56.4082C324.976 57.8145 323.695 59.0488 322.257 60.1113C320.851 61.1738 319.367 62.0488 317.804 62.7363C316.242 63.3926 314.679 63.8926 313.117 64.2363C311.554 64.6113 310.07 64.7988 308.664 64.7988C302.882 64.7988 298.507 63.6895 295.539 61.4707C292.57 59.252 291.086 56.0645 291.086 51.9082ZM308.664 59.3145C311.351 59.3145 313.757 58.9238 315.882 58.1426C318.039 57.3301 319.867 56.3301 321.367 55.1426C322.867 53.9551 324.023 52.6895 324.836 51.3457C325.679 50.002 326.101 48.7832 326.101 47.6895V43.5645C324.007 43.252 321.992 43.0801 320.054 43.0488C318.148 43.0176 316.492 43.002 315.086 43.002C312.773 43.002 310.539 43.1582 308.382 43.4707C306.257 43.7832 304.398 44.2988 302.804 45.0176C301.211 45.7051 299.929 46.6113 298.961 47.7363C297.992 48.8613 297.507 50.252 297.507 51.9082C297.507 53.752 298.398 55.4551 300.179 57.0176C301.992 58.5488 304.82 59.3145 308.664 59.3145ZM382.473 63.7207H376.051V32.3145C376.051 29.8145 375.614 27.877 374.739 26.502C373.864 25.127 372.598 24.4395 370.942 24.4395C368.504 24.4395 366.707 25.7207 365.551 28.2832C364.426 30.8457 363.864 34.4395 363.864 39.0645V63.7207H357.395V32.3145C357.395 29.8145 356.942 27.877 356.036 26.502C355.161 25.127 353.895 24.4395 352.239 24.4395C350.707 24.4395 349.489 24.8926 348.582 25.7988C347.676 26.7051 346.957 27.8613 346.426 29.2676C345.926 30.6738 345.598 32.2363 345.442 33.9551C345.286 35.6738 345.207 37.377 345.207 39.0645V63.7207H338.786V20.0332H345.207V26.3613C346.551 21.4551 349.473 19.002 353.973 19.002C358.254 19.002 361.161 21.1426 362.692 25.4238C364.817 21.1426 367.817 19.002 371.692 19.002C375.411 19.002 378.129 20.1113 379.848 22.3301C381.598 24.5176 382.473 27.8457 382.473 32.3145V63.7207ZM392.814 44.127C393.282 48.752 394.97 52.4395 397.876 55.1895C400.782 57.9395 404.564 59.3145 409.22 59.3145C412.501 59.3145 415.423 58.6426 417.986 57.2988C420.548 55.9551 422.47 54.2832 423.751 52.2832L428.251 55.377C426.064 58.4395 423.454 60.7832 420.423 62.4082C417.392 64.002 413.657 64.7988 409.22 64.7988C405.845 64.7988 402.751 64.2363 399.939 63.1113C397.126 61.9863 394.689 60.4238 392.626 58.4238C390.595 56.3926 389.017 53.9863 387.892 51.2051C386.767 48.4238 386.204 45.3301 386.204 41.9238C386.204 38.6113 386.704 35.5645 387.704 32.7832C388.736 29.9707 390.204 27.5488 392.111 25.5176C394.048 23.4551 396.392 21.8613 399.142 20.7363C401.892 19.5801 404.97 19.002 408.376 19.002C412.095 19.002 415.345 19.627 418.126 20.877C420.907 22.127 423.22 23.8613 425.064 26.0801C426.939 28.2676 428.314 30.8926 429.189 33.9551C430.095 37.0176 430.548 40.4082 430.548 44.127H392.814ZM423.751 38.6426C423.032 33.8613 421.298 30.2988 418.548 27.9551C415.798 25.6113 412.407 24.4395 408.376 24.4395C406.314 24.4395 404.407 24.7832 402.657 25.4707C400.907 26.127 399.361 27.0801 398.017 28.3301C396.673 29.5801 395.548 31.0957 394.642 32.877C393.736 34.627 393.157 36.5488 392.907 38.6426H423.751Z" fill="black"/>
<path d="M443.998 65.054C441.954 65.054 440.242 64.3651 438.865 62.9874C437.487 61.6096 436.798 59.8985 436.798 57.854C436.798 55.8096 437.487 54.0985 438.865 52.7207C440.242 51.3429 441.954 50.654 443.998 50.654C446.087 50.654 447.798 51.3429 449.131 52.7207C450.509 54.0985 451.198 55.8096 451.198 57.854C451.198 59.8985 450.509 61.6096 449.131 62.9874C447.798 64.3651 446.087 65.054 443.998 65.054Z" fill="#FF383C"/>
</svg>
