<?xml version="1.0" encoding="UTF-8"?><svg id="Layer_2" xmlns="http://www.w3.org/2000/svg" viewBox="0 0 1020.02 170.1"><defs><style>.cls-1{fill:none;stroke-width:11px;}.cls-1,.cls-2,.cls-3{stroke:#04c5a1;stroke-miterlimit:10;}.cls-4{fill:#0a0a0a;}.cls-2{stroke-width:6px;}.cls-2,.cls-3{fill:#04c5a1;}.cls-3{stroke-width:8px;}</style></defs><g id="Layer_1-2"><path class="cls-4" d="M193.3,163.64v-74.61h25.88l.95,8.25c2.86-3.6,6.22-6.19,10.08-7.78,3.86-1.59,7.7-2.38,11.51-2.38,4.66,0,8.44.66,11.35,1.98,2.91,1.32,5.16,2.78,6.75,4.37,1.59,1.59,2.7,2.81,3.33,3.65,1.59-1.8,3.76-3.44,6.51-4.92,2.75-1.48,5.69-2.7,8.81-3.65,3.12-.95,6.11-1.43,8.97-1.43,9.52,0,16.83,2.65,21.91,7.94,5.08,5.29,7.62,12.49,7.62,21.59v46.99h-26.83v-39.84c0-4.02-.79-7.2-2.38-9.53-1.59-2.33-4.18-3.49-7.78-3.49s-6.54,1.17-8.81,3.49c-2.28,2.33-3.41,5.5-3.41,9.53v39.84h-25.24v-39.84c0-4.02-.77-7.2-2.3-9.53-1.54-2.33-4.15-3.49-7.86-3.49-3.39,0-6.27,1.17-8.65,3.49-2.38,2.33-3.57,5.5-3.57,9.53v39.84h-26.83Z"/><path class="cls-4" d="M329.02,126.34c0-7.41,1.67-14.13,5-20.16s8.02-10.82,14.05-14.37c6.03-3.54,12.96-5.32,20.8-5.32s14.89,1.77,20.87,5.32c5.98,3.55,10.64,8.33,13.97,14.37s5,12.75,5,20.16-1.67,14.13-5,20.16-7.99,10.82-13.97,14.37c-5.98,3.54-12.94,5.32-20.87,5.32s-14.76-1.77-20.8-5.32c-6.03-3.54-10.71-8.33-14.05-14.37s-5-12.75-5-20.16ZM368.87,142.69c4.44,0,7.99-1.56,10.64-4.68,2.64-3.12,3.97-7.01,3.97-11.67s-1.32-8.54-3.97-11.67c-2.65-3.12-6.19-4.68-10.64-4.68s-7.99,1.56-10.64,4.68c-2.65,3.12-3.97,7.01-3.97,11.67s1.32,8.55,3.97,11.67c2.64,3.12,6.19,4.68,10.64,4.68Z"/><path class="cls-4" d="M421.09,163.64v-74.61h25.88l.95,7.78c2.01-2.43,4.34-4.37,6.98-5.79,2.64-1.43,5.29-2.43,7.94-3.02,2.64-.58,4.87-.87,6.67-.87,5.18,0,9.84,1.01,13.97,3.02,4.13,2.01,7.38,5.19,9.76,9.52,2.38,4.34,3.57,10,3.57,16.99v46.99h-26.83v-40.64c0-3.7-.77-6.67-2.3-8.89-1.54-2.22-4-3.33-7.38-3.33-4.76,0-8.02,1.38-9.76,4.13-1.75,2.75-2.62,5.71-2.62,8.89v39.84h-26.83Z"/><path class="cls-4" d="M563.17,163.64l-1.43-7.62c-2.65,3.28-5.85,5.71-9.6,7.3-3.76,1.59-7.38,2.38-10.87,2.38-3.92,0-7.57-.61-10.95-1.83-3.39-1.22-6.4-2.94-9.05-5.16-3.92-3.39-6.96-7.88-9.13-13.49-2.17-5.61-3.25-11.69-3.25-18.26,0-7.51,1.67-14.23,5-20.16,3.33-5.93,8.02-10.64,14.05-14.13,6.03-3.49,13.07-5.24,21.11-5.24,2.43,0,4.66.19,6.67.56,2.01.37,3.7.77,5.08,1.19v-31.43h26.83v105.88h-24.45ZM560.79,129.35v-17.94c-2.65-.95-5.56-1.43-8.73-1.43-4.76,0-8.65,1.51-11.67,4.52-3.02,3.02-4.52,7.49-4.52,13.41,0,4.44,1.11,8.02,3.33,10.72,2.22,2.7,5.5,4.05,9.84,4.05,3.91,0,6.85-1.16,8.81-3.49,1.96-2.33,2.94-5.61,2.94-9.84Z"/><path class="cls-4" d="M609.2,163.64v-53.97h-11.43v-20.64h11.43v-2.86c0-6.77,1.45-12.46,4.37-17.06,2.91-4.6,6.88-8.12,11.91-10.56,5.02-2.43,10.77-3.65,17.22-3.65,9.52,0,17.46,2.54,23.81,7.62l-11.11,17.3c-1.38-1.06-2.96-1.91-4.76-2.54-1.8-.63-3.65-.95-5.56-.95-2.65,0-4.82.85-6.51,2.54s-2.54,3.97-2.54,6.83v3.33h16.19v20.64h-16.19v53.97h-26.83Z"/><path class="cls-4" d="M662.22,163.64v-74.61h25.88l.95,9.37c2.12-2.96,4.74-5.48,7.86-7.54,3.12-2.06,6.91-3.1,11.35-3.1,2.12,0,3.94.11,5.48.32,1.53.21,2.88.53,4.05.95l-3.49,22.86c-2.54-.63-5.13-.95-7.78-.95-11.64,0-17.46,6.4-17.46,19.21v33.49h-26.83Z"/><path class="cls-4" d="M767.94,163.64l-.95-6.98c-3.39,3.6-6.8,6.09-10.24,7.46-3.44,1.37-7.7,2.06-12.78,2.06-3.28,0-6.72-.63-10.32-1.91-3.6-1.27-6.67-3.54-9.21-6.83-2.54-3.28-3.81-7.88-3.81-13.81s1.64-11.06,4.92-15.08c3.28-4.02,7.64-7.06,13.1-9.13,5.45-2.06,11.35-3.09,17.7-3.09,2.43,0,4.39.05,5.87.16,1.48.11,3.07.27,4.76.48v-1.43c0-2.64-.66-4.63-1.98-5.95-1.32-1.32-2.94-2.22-4.84-2.7-1.91-.48-3.76-.71-5.56-.71-4.66,0-8.81.61-12.46,1.83-3.65,1.22-6.59,2.62-8.81,4.21l-10.16-15.4c3.17-2.54,7.64-4.87,13.41-6.98,5.77-2.12,13.04-3.18,21.83-3.18,10.37,0,18.76,2.67,25.16,8.02,6.4,5.35,9.6,13.31,9.6,23.89v45.08h-25.24ZM766.99,136.34v-4.92c-1.8-.42-4.23-.63-7.3-.63-4.44,0-7.73.87-9.84,2.62-2.12,1.75-3.17,3.84-3.17,6.27,0,5.5,2.96,8.25,8.89,8.25,2.75,0,5.34-.82,7.78-2.46,2.43-1.64,3.65-4.68,3.65-9.13Z"/><path class="cls-4" d="M808.42,163.64v-74.61h25.88l.95,8.25c2.86-3.6,6.22-6.19,10.08-7.78,3.86-1.59,7.7-2.38,11.51-2.38,4.66,0,8.44.66,11.35,1.98,2.91,1.32,5.16,2.78,6.75,4.37s2.7,2.81,3.33,3.65c1.59-1.8,3.75-3.44,6.51-4.92,2.75-1.48,5.69-2.7,8.81-3.65,3.12-.95,6.11-1.43,8.97-1.43,9.52,0,16.83,2.65,21.91,7.94,5.08,5.29,7.62,12.49,7.62,21.59v46.99h-26.83v-39.84c0-4.02-.79-7.2-2.38-9.53-1.59-2.33-4.18-3.49-7.78-3.49s-6.54,1.17-8.81,3.49c-2.28,2.33-3.41,5.5-3.41,9.53v39.84h-25.24v-39.84c0-4.02-.77-7.2-2.3-9.53-1.54-2.33-4.15-3.49-7.86-3.49-3.39,0-6.27,1.17-8.65,3.49-2.38,2.33-3.57,5.5-3.57,9.53v39.84h-26.83Z"/><path class="cls-4" d="M1009.39,140.78l8.41,17.46c-2.44,1.38-6.35,3.04-11.75,5s-11.85,2.94-19.37,2.94c-13.65,0-24.16-3.46-31.51-10.4-7.36-6.93-11.03-16.64-11.03-29.13,0-4.97.79-9.84,2.38-14.6,1.59-4.76,3.99-9.07,7.22-12.94,3.23-3.86,7.3-6.93,12.22-9.21,4.92-2.27,10.66-3.41,17.22-3.41s13.1,1.56,18.65,4.68c5.56,3.12,9.97,7.83,13.26,14.13,3.28,6.3,4.92,14.26,4.92,23.89v5.08h-50.48c.1,1.69.71,3.47,1.83,5.32,1.11,1.85,3.02,3.41,5.71,4.68,2.7,1.27,6.38,1.9,11.03,1.9s8.73-.58,12.54-1.75c3.81-1.16,6.72-2.38,8.73-3.65ZM969.7,118.4h26.51c0-1.69-.48-3.44-1.43-5.24-.95-1.8-2.41-3.36-4.37-4.68-1.96-1.32-4.47-1.98-7.54-1.98s-5.42.66-7.38,1.98c-1.96,1.33-3.41,2.88-4.37,4.68-.95,1.8-1.43,3.55-1.43,5.24Z"/><polygon class="cls-2" points="63.87 21.98 63.87 34.55 51.67 34.55 51.67 47.13 39.46 47.13 35.49 19.6 63.87 21.98"/><path class="cls-3" d="M157.65,71.62v88.38c0,3.37-2.53,6.1-5.66,6.1H27.48c-3.12,0-5.66-2.73-5.66-6.1v-88.38c0-3.37,2.53-6.1,5.66-6.1h0c3.12,0,5.66,2.73,5.66,6.1l5.53,83.66c0,3.37,2.53,6.1,5.66,6.1l96.35-7.85c3.12,0,5.66-2.73,5.66-6.1v-75.81c0-3.37,2.53-6.1,5.66-6.1h0c3.12,0,5.66,2.73,5.66,6.1Z"/><line class="cls-2" x1="8.75" y1="77.81" x2="93.46" y2="18.45"/><polygon class="cls-2" points="12.45 83.09 5.05 77.81 89.76 13.18 97.16 23.73 12.45 83.09"/><line class="cls-2" x1="170.77" y1="77.81" x2="86.06" y2="18.45"/><polygon class="cls-2" points="167.08 83.09 170.77 77.81 95.76 4.61 82.37 23.73 167.08 83.09"/><circle class="cls-1" cx="75.45" cy="90.01" r="12.2"/><circle class="cls-1" cx="104.03" cy="90.01" r="12.2"/><rect class="cls-2" x="81.38" y="114.28" width="16.72" height="16.72" rx=".12" ry=".12" transform="translate(113 -27.53) rotate(45)"/></g></svg>